<svg width="190.000000" height="128.000000" viewBox="0 0 190 128" fill="none" xmlns="http://www.w3.org/2000/svg" xmlns:xlink="http://www.w3.org/1999/xlink">
	<desc>
			Created with Pixso.
	</desc>
	<defs>
		<clipPath id="clip299_1556">
			<rect width="190.000000" height="128.000000" fill="white" fill-opacity="0"/>
		</clipPath>
	</defs>
	<rect width="190.000000" height="128.000000" fill="#FFFFFF" fill-opacity="1.000000"/>
	<g clip-path="url(#clip299_1556)">
		<path d="M20 27C24.418 27 28 23.418 28 19C28 14.582 24.418 11 20 11C15.582 11 12 14.582 12 19C12 23.418 15.582 27 20 27Z" fill="#373334" fill-opacity="1.000000" fill-rule="nonzero"/>
		<path d="M16.7686 23.5205L16 23.5146L16 24L20.5771 24C22.5557 24 23.9951 23.0225 23.9951 21.0635C23.9951 19.7061 22.5859 18.8359 21.3984 18.8574L21.3984 18.7139C22.7744 18.5381 23.4697 17.5576 23.4697 16.2207C23.4697 14.874 22.2109 14.001 20.5352 14.001L16 14L16 14.501L16.7686 14.4932L16.7686 23.5205ZM19.6084 14.4961L19.6084 18.5049L20.126 18.5049C20.5 18.5049 20.9023 18.2568 20.9023 17.2578L20.9023 15.6709C20.9023 14.4844 20.4609 14.4912 20.1865 14.4951C20.1709 14.4951 20.1553 14.4961 20.1416 14.4961L19.6084 14.4961ZM19.5977 19.0029L19.6064 23.5166L20.1387 23.5166L20.1562 23.5166C20.4385 23.5176 21.1543 23.5195 21.1543 22.2861L21.1543 20.1924C21.1543 19.3066 20.5557 18.9922 20.123 18.9922L19.5977 19.0029Z" clip-rule="evenodd" fill="#FFFFFF" fill-opacity="1.000000" fill-rule="evenodd"/>
		<path d="M53 43C61.8369 43 69 35.8369 69 27C69 18.1631 61.8369 11 53 11C44.1631 11 37 18.1631 37 27C37 35.8369 44.1631 43 53 43Z" fill="#373334" fill-opacity="1.000000" fill-rule="nonzero"/>
		<path d="M46.5371 36.041L45 36.0293L45 37L54.1533 37C58.1123 37 60.9902 35.0459 60.9902 31.127C60.9902 28.4121 58.1719 26.6709 55.7979 26.7139L55.7979 26.4277C58.5488 26.0771 59.9404 24.1152 59.9404 21.4404C59.9404 18.749 57.4229 17.002 54.0713 17.002L45 17L45 18.001L46.5371 17.9854L46.5371 36.041ZM52.2168 17.9912L52.2168 26.0107L53.251 26.0107C53.999 26.0107 54.8037 25.5146 54.8037 23.5146L54.8037 20.3408C54.8037 17.9688 53.9209 17.9824 53.373 17.9902C53.3418 17.9912 53.3115 17.9912 53.2822 17.9912L52.2168 17.9912ZM52.1963 27.0068L52.2129 36.0342L53.2783 36.0342L53.3135 36.0342C53.877 36.0352 55.3076 36.0381 55.3076 33.5732L55.3076 29.3848C55.3076 27.6133 54.1113 26.9844 53.2471 26.9844L52.1963 27.0068Z" clip-rule="evenodd" fill="#FFFFFF" fill-opacity="1.000000" fill-rule="evenodd"/>
		<path d="M110 75C127.673 75 142 60.6729 142 43C142 25.3271 127.673 11 110 11C92.3271 11 78 25.3271 78 43C78 60.6729 92.3271 75 110 75Z" fill="#373334" fill-opacity="1.000000" fill-rule="nonzero"/>
		<path d="M97.0742 61.0811L94 61.0586L94 63L112.308 63C120.225 63 125.98 59.0908 125.98 51.2539C125.98 45.8242 120.344 42.3428 115.596 42.4287L115.596 41.8545C121.098 41.1543 123.881 37.2305 123.881 31.8809C123.881 26.498 118.846 23.0039 112.143 23.0039L94 23L94 25.0029L97.0732 24.9717L97.0742 61.0811ZM108.434 24.9824L108.434 41.0205L110.503 41.0205C111.998 41.0205 113.607 40.0283 113.607 36.0293L113.607 29.6816C113.607 24.9375 111.843 24.9639 110.745 24.9805C110.683 24.9814 110.623 24.9824 110.565 24.9824L108.434 24.9824ZM108.393 43.0127L108.425 61.0684L110.556 61.0684C110.579 61.0684 110.603 61.0684 110.627 61.0684C111.753 61.0703 114.616 61.0771 114.616 56.1455L114.616 47.7695C114.616 44.2256 112.223 42.9678 110.493 42.9678L108.393 43.0127Z" clip-rule="evenodd" fill="#FFFFFF" fill-opacity="1.000000" fill-rule="evenodd"/>
	</g>
</svg>

