<svg width="11.000000" height="25.000000" viewBox="0 0 11 25" fill="none" xmlns="http://www.w3.org/2000/svg" xmlns:xlink="http://www.w3.org/1999/xlink">
	<desc>
			Created with Pixso.
	</desc>
	<defs/>
	<path id="Vector" d="M3.625 1.28711C4.5459 0.359375 5.84961 0.0449219 7.08496 0.0078125C8.38867 -0.00390625 9.69238 0.00195312 10.9961 0.00195312C11.001 1.46289 11.001 2.91992 10.9961 4.38086C10.1553 4.38086 9.30859 4.38086 8.46875 4.38086C7.93652 4.34375 7.3877 4.77539 7.29102 5.33984C7.2793 6.31641 7.28516 7.29297 7.28516 8.26953C8.51953 8.27539 9.75488 8.26953 10.9902 8.27539C10.8984 9.68945 10.7324 11.0957 10.5381 12.4922C9.44629 12.5039 8.35449 12.4922 7.26172 12.498C7.25 16.666 7.26758 20.8262 7.25586 24.9941C5.63184 25 4.01465 24.9883 2.39062 25C2.36133 20.834 2.39062 16.666 2.37305 12.498C1.58398 12.4922 0.789062 12.5039 0 12.4922C0.00585938 11.0898 0 9.68945 0 8.29492C0.789062 8.28125 1.58398 8.29492 2.37305 8.28711C2.39551 6.92969 2.34961 5.56445 2.39551 4.20508C2.48242 3.11914 2.86523 2.0332 3.625 1.28711Z" fill="#D2D2D2" fill-opacity="1.000000" fill-rule="nonzero"/>
</svg>
