<svg width="24.000000" height="19.000000" viewBox="0 0 24 19" fill="none" xmlns="http://www.w3.org/2000/svg" xmlns:xlink="http://www.w3.org/1999/xlink">
	<desc>
			Created with Pixso.
	</desc>
	<defs/>
	<path id="Vector" d="M24 2.25391C23.1279 2.68359 22.1455 2.89844 21.1641 3.00586C22.1455 2.36133 22.9092 1.50391 23.3457 0.322266C22.3643 0.859375 21.3818 1.28906 20.1826 1.50195C19.3096 0.537109 18 0 16.582 0C13.8555 0 11.6729 2.14648 11.6729 4.83008C11.6729 5.25977 11.6729 5.58203 11.7822 5.9043C7.74609 5.68945 4.14551 3.75781 1.63672 0.859375C1.2002 1.60938 0.982422 2.36133 0.982422 3.32812C0.982422 5.04492 1.85547 6.43945 3.16406 7.29883C2.40039 7.29883 1.63672 7.08398 0.982422 6.6543L0.982422 6.76172C0.982422 9.12305 2.61914 11.0566 4.90918 11.4863C4.47363 11.5938 4.03613 11.7012 3.60059 11.7012C3.27344 11.7012 2.94531 11.7012 2.72754 11.5938C3.38184 13.5254 5.12695 14.9219 7.30957 14.9219C5.67285 16.209 3.49121 16.9609 1.2002 16.9609C0.763672 16.9609 0.436523 16.9609 0 16.8535C2.18164 18.248 4.69141 19 7.52734 19C16.582 19 21.4912 11.7012 21.4912 5.25977L21.4912 4.61523C22.582 4.07812 23.3457 3.2207 24 2.25391Z" fill="#D2D2D2" fill-opacity="1.000000" fill-rule="nonzero"/>
</svg>
