<?xml version="1.0" encoding="utf-8"?><svg viewBox="0 0 26 26" xmlns="http://www.w3.org/2000/svg" xmlns:xlink="http://www.w3.org/1999/xlink"><style>:root>svg{display:none}:root>svg:target{display:block}</style><svg viewBox="0 0 11 25" id="icons--facebook" xmlns="http://www.w3.org/2000/svg"><path d="M3.625 1.287C4.545.36 5.85.045 7.085.007c1.304-.01 2.607-.005 3.911-.005.005 1.46.005 2.918 0 4.379H8.47c-.532-.037-1.081.394-1.178.959-.012.976-.006 1.953-.006 2.93 1.235.005 2.47 0 3.705.005a57.784 57.784 0 0 1-.452 4.217c-1.092.012-2.184 0-3.276.006-.012 4.168.006 8.328-.006 12.496C5.632 25 4.015 24.988 2.39 25c-.03-4.166 0-8.334-.018-12.502-.789-.006-1.584.006-2.373-.006.006-1.402 0-2.803 0-4.197.79-.014 1.584 0 2.373-.008.023-1.357-.023-2.723.023-4.082.086-1.086.47-2.172 1.229-2.918Z"/></svg><svg viewBox="0 0 26 26" id="icons--info" xmlns="http://www.w3.org/2000/svg"><circle cx="13" cy="13" r="12.5"/><path d="M12.856 5.928c-.528 0-.928.384-.928.88 0 .512.4.896.928.896s.928-.384.928-.896c0-.496-.4-.88-.928-.88ZM12.184 18.6h1.328V9.8h-1.328v8.8Z" fill-rule="evenodd"/></svg><svg viewBox="0 0 23.999 21" id="icons--telegram" xmlns="http://www.w3.org/2000/svg"><path d="M23.238.04.351 8.94c-.461.181-.468.912-.018 1.123l5.862 2.45L8.38 19.54c.13.377.592.504.89.244l3.354-3.183 6.375 4.312a.556.556 0 0 0 .845-.369L23.987.683a.562.562 0 0 0-.749-.644ZM9.456 13.843l-.373 3.611-1.77-5.558 12.483-8.362-10.34 10.309Z"/></svg><svg viewBox="0 0 24 19" id="icons--twitter" xmlns="http://www.w3.org/2000/svg"><path d="M24 2.254c-.872.43-1.855.644-2.836.752.981-.645 1.745-1.502 2.182-2.684-.982.537-1.964.967-3.163 1.18C19.31.537 18 0 16.582 0c-2.727 0-4.91 2.146-4.91 4.83 0 .43 0 .752.11 1.074C7.746 5.69 4.146 3.758 1.637.86 1.2 1.61.982 2.361.982 3.33c0 1.716.873 3.11 2.182 3.97a3.976 3.976 0 0 1-2.182-.645v.108c0 2.361 1.637 4.295 3.927 4.724-.435.108-.873.215-1.308.215-.328 0-.656 0-.873-.107.654 1.931 2.399 3.328 4.582 3.328-1.637 1.286-3.82 2.037-6.11 2.037-.436 0-.763 0-1.2-.107C2.182 18.247 4.691 19 7.527 19c9.055 0 13.964-7.299 13.964-13.74v-.645c1.091-.537 1.855-1.394 2.509-2.361Z"/></svg></svg>